<svg xmlns="http://www.w3.org/2000/svg" width="64" height="64" viewBox="0 0 64 64">
  <rect width="64" height="64" fill="#456bd9"/>
  <g fill="#fff">
    <path d="M45.35,33.92a1.06,1.06,0,0,1-.75-.32L30.39,19.41a1.07,1.07,0,0,1,1.5-1.5L46.1,32.09a1.07,1.07,0,0,1-.75,1.82Z"/>
    <path d="M33,46.31A1.06,1.06,0,0,1,32.2,46L18,31.8a1.07,1.07,0,1,1,1.5-1.5L33.71,44.48A1.07,1.07,0,0,1,33,46.31Z"/>
    <path d="M44.8,45.77a1.06,1.06,0,0,1-.75-.32l-25.5-25.5a1.07,1.07,0,1,1,1.5-1.5l25.5,25.5a1.07,1.07,0,0,1-.75,1.82Z"/>
  </g>
</svg>
